<?xml version="1.0" encoding="UTF-8"?>
<!DOCTYPE svg PUBLIC "-//W3C//DTD SVG 1.1//EN" "http://www.w3.org/Graphics/SVG/1.1/DTD/svg11.dtd">
<!-- Creator: CorelDRAW 2018 (64 Bit Versão de avaliação) -->
<svg xmlns="http://www.w3.org/2000/svg" xml:space="preserve" width="156.241mm" height="66.4865mm" version="1.1" style="shape-rendering:geometricPrecision; text-rendering:geometricPrecision; image-rendering:optimizeQuality; fill-rule:evenodd; clip-rule:evenodd"
viewBox="0 0 12485.51 5313.05"
 xmlns:xlink="http://www.w3.org/1999/xlink">
 <defs>
  <style type="text/css">
   <![CDATA[
    .fil1 {fill:#0773AF}
    .fil0 {fill:white}
    .fil2 {fill:white}
    .fil4 {fill:white;fill-rule:nonzero}
    .fil3 {fill:white;fill-rule:nonzero}
   ]]>
  </style>
 </defs>
 <g id="Camada_x0020_1">
  <metadata id="CorelCorpID_0Corel-Layer"/>
  <g id="_1746596528576">
   <rect class="fil0" x="3535.32" y="991.44" width="8950.19" height="4165.48"/>
   <rect class="fil1" x="3899.33" y="1323.86" width="3736.32" height="3500.64"/>
   <polygon class="fil2" points="4341.6,4248.46 4248.79,4248.46 6616.07,1879.69 6708.8,1879.76 "/>
   <polygon class="fil2" points="4536.77,4248.46 4443.95,4248.46 6811.24,1879.69 6903.96,1879.76 "/>
   <polygon class="fil2" points="4734.31,4248.46 4641.49,4248.46 7008.78,1879.69 7101.5,1879.76 "/>
   <polygon class="fil2" points="4919.01,4248.46 4826.2,4248.46 7193.48,1879.69 7286.21,1879.76 "/>
   <path class="fil3" d="M5744.4 4268.68c437.83,0 796.1,-358.14 796.1,-795.99 0,-524.4 0,-1048.79 0,-1573.18l-531.71 0c0,524.4 0,1048.79 0,1573.18 0,145.43 -118.94,264.34 -264.29,264.34 -135.68,0 -248.57,-101.35 -262.82,-236.31 -17.86,-323.04 -1.55,-693.67 -1.55,-1021.93l0 -579.27 -531.72 0 0 1573.18c0,212.78 75.37,377.09 209.59,536.72 145.74,159.14 354.94,259.27 586.4,259.27z"/>
  </g>
  <g id="_1746596530464">
   <path class="fil4" d="M2212.56 2356.99l0.69 -0.66c51.98,-52.18 84.3,-123.86 84.3,-202.38l0 -574.38c0,-78.35 -32.2,-149.95 -84.01,-202.1l-0.57 -0.53c-52.43,-52.26 -124.15,-84.59 -202.63,-84.59l-574.37 0c-78.39,0 -149.95,32.2 -202.1,84.02l-0.53 0.57c-52.27,52.42 -84.59,124.14 -84.59,202.62l0 574.38c0,78.39 32.2,149.95 84.01,202.1l0.58 0.53c52.42,52.26 124.1,84.58 202.62,84.58l574.37 0c78.36,0 149.95,-32.2 202.22,-84.17zm-202.22 -203.03l-574.37 0 0 -574.38 574.37 0 0 574.38z"/>
   <path class="fil4" d="M2213.28 3792.3c51.94,-52.02 84.26,-123.66 84.26,-202.38l0 -574.37c0,-79.09 -32.32,-150.97 -84.26,-202.91 -51.97,-51.98 -123.86,-84.3 -202.95,-84.3l-574.37 0c-79.09,0 -150.97,32.32 -202.95,84.3 -51.94,51.94 -84.26,123.82 -84.26,202.91l0 574.37c0,78.72 32.32,150.36 84.26,202.38l0.53 0.53c52.02,51.94 123.74,84.26 202.42,84.26l574.37 0c78.68,0 150.4,-32.32 202.42,-84.26l0.53 -0.53zm-202.95 -202.42l-574.37 0 0 -574.29 574.37 -0.04 0 574.33z"/>
   <path class="fil4" d="M2010.33 5025.8l-574.37 0.04 0 -574.33 574.37 0 0 574.29zm202.95 202.95c51.94,-51.94 84.26,-123.82 84.26,-202.91l0 -574.37c0,-78.68 -32.32,-150.36 -84.26,-202.38l-0.53 -0.53c-52.02,-51.94 -123.74,-84.26 -202.42,-84.26l-574.37 0c-78.68,0 -150.4,32.32 -202.42,84.26l-0.53 0.53c-51.94,52.02 -84.26,123.7 -84.26,202.38l0 574.37c0,79.09 32.32,150.97 84.26,202.91 51.98,51.98 123.86,84.3 202.95,84.3l574.37 0c79.09,0 150.98,-32.32 202.95,-84.3z"/>
   <polygon class="fil4" points="2297.51,0 861.58,0 861.58,287.22 2297.51,287.22 "/>
   <polygon class="fil4" points="2297.51,574.37 2010.34,574.37 2010.34,861.59 2297.51,861.59 "/>
   <polygon class="fil4" points="1723.12,574.37 1435.96,574.37 1435.96,861.59 1723.12,861.59 "/>
   <polygon class="fil4" points="717.98,1435.97 143.59,1435.97 143.59,1723.18 717.98,1723.18 "/>
   <polygon class="fil4" points="717.98,2010.35 -0,2010.35 -0,2297.56 717.98,2297.56 "/>
   <polygon class="fil4" points="717.98,2871.92 143.59,2871.92 143.59,3159.13 717.98,3159.13 "/>
   <polygon class="fil4" points="717.98,3446.31 -0,3446.31 -0,3733.52 717.98,3733.52 "/>
   <polygon class="fil4" points="717.98,4307.86 143.59,4307.86 143.59,4595.07 717.98,4595.07 "/>
   <polygon class="fil4" points="717.98,4882.23 -0,4882.23 -0,5169.44 717.98,5169.44 "/>
  </g>
 </g>
</svg>
